<svg xmlns="http://www.w3.org/2000/svg" xmlns:xlink="http://www.w3.org/1999/xlink" width="343.451" height="365.402" viewBox="0 0 343.451 365.402">
  <defs>
    <clipPath id="clip-path">
      <path id="Path_2" data-name="Path 2" d="M186.71,290.006l38.226-22.148,21.438,12.407-38.251,22.158ZM157.619,0,128.531,16.856,235.666,78.944v24.825l-128.55-74.5L0,91.351v33.724l107.116-62.1,21.429,12.428L0,149.9V274.061l29.09,16.848V166.757l21.416-12.418v149L157.619,365.4l29.092-16.848L79.593,286.48V261.645l128.531,74.5,67.317-39.036,68.009,39.415V302.949L160.108,196.693V230.27l35.761,20.721-38.251,22.167L79.593,227.93V137.482l78.026-45.228,78.047,45.228v44.327l-75.558-43.791v33.589L343.451,277.861V244.282L315.238,227.93V91.351L286.171,74.493V211.082l-21.436-12.426V62.086L236.44,45.681Z" transform="translate(0 0.001)" fill="#3f3f3f"/>
    </clipPath>
  </defs>
  <g id="Group_1626" data-name="Group 1626" opacity="0.5">
    <g id="Group_1" data-name="Group 1" transform="translate(0 0)" clip-path="url(#clip-path)">
      <path id="Path_19" data-name="Path 19" d="M.708.693,467.545,0l-.708,477.729L0,478.422Z" transform="matrix(0.903, -0.43, 0.43, 0.903, -142.132, 67.095)" fill="#3f3f3f"/>
    </g>
  </g>
</svg>
