<svg xmlns="http://www.w3.org/2000/svg" xmlns:xlink="http://www.w3.org/1999/xlink" width="202" height="44" viewBox="0 0 202 44">
  <defs>
    <clipPath id="clip-path">
      <path id="Path_2" data-name="Path 2" d="M22.458,34.882l4.6-2.664,2.579,1.492-4.6,2.665ZM18.959,0l-3.5,2.028L28.347,9.495v2.986L12.884,3.52,0,10.987v4.057L12.884,7.574l2.578,1.495L0,18.03V32.964l3.5,2.027V20.057l2.576-1.494V36.486l12.884,7.466,3.5-2.027L9.574,34.458V31.471l15.46,8.962,8.1-4.7,8.18,4.741V36.439L19.258,23.658V27.7l4.3,2.492-4.6,2.666-9.385-5.44V16.536l9.385-5.44,9.388,5.44v5.332L19.258,16.6v4.04L41.312,33.421V29.382l-3.394-1.967V10.987l-3.5-2.028v16.43l-2.578-1.495V7.467l-3.4-1.973Z" transform="translate(0 0.001)" fill="#fff"/>
    </clipPath>
    <clipPath id="clip-path-2">
      <rect id="Rectangle_2" data-name="Rectangle 2" width="202" height="44" transform="translate(0 -0.048)" fill="#fff"/>
    </clipPath>
  </defs>
  <g id="Group_1622" data-name="Group 1622" transform="translate(0 0.049)">
    <path id="Path_1" data-name="Path 1" d="M51.141,142.18l-5.02-2.91-4.366-2.53Z" transform="translate(-32.182 -105.269)" fill="#fff"/>
    <g id="Group_2" data-name="Group 2" transform="translate(0 -0.001)">
      <g id="Group_1" data-name="Group 1" transform="translate(0 0)" clip-path="url(#clip-path)">
        <path id="Path_19" data-name="Path 19" d="M.085.083,56.238,0l-.085,57.463L0,57.547Z" transform="matrix(0.903, -0.43, 0.43, 0.903, -17.096, 8.07)" fill="#fff"/>
      </g>
    </g>
    <g id="Group_4" data-name="Group 4" transform="translate(0 -0.001)">
      <g id="Group_3" data-name="Group 3" clip-path="url(#clip-path-2)">
        <path id="Path_3" data-name="Path 3" d="M235.351,12.471c6.32,0,10.473,3.408,10.473,10.078v4.894a10.733,10.733,0,0,1-1.625,6.091l5.128,5.438h-5.634l-2.672-2.683a12.579,12.579,0,0,1-5.67,1.2h-.506c-6.32,0-10.509-3.372-10.509-10.042V22.549c0-6.67,4.153-10.078,10.509-10.078Zm-6.392,10.187V27.3c0,4.06,2.2,6.2,5.887,6.2h.47c3.684,0,5.887-2.139,5.887-6.2v-4.64c0-4.06-2.2-6.2-5.887-6.2h-.47c-3.684,0-5.887,2.139-5.887,6.2" transform="translate(-172.901 -9.601)" fill="#fff"/>
        <path id="Path_4" data-name="Path 4" d="M345.76,58.1V55.891h-.722a5.829,5.829,0,0,1-5.129,2.574h-.433c-3.575,0-6.139-2.248-6.139-7.251V39.722h4.442V50.417c0,2.828,1.409,4.205,3.756,4.205h.433c2.384,0,3.792-1.378,3.792-4.205V39.722H350.2V58.1Z" transform="translate(-256.91 -30.58)" fill="#fff"/>
        <path id="Path_5" data-name="Path 5" d="M427.806,6.328a2.178,2.178,0,0,1,2.311,2.1v.181a2.156,2.156,0,0,1-2.311,2.1h-.325a2.156,2.156,0,0,1-2.311-2.1V8.431a2.178,2.178,0,0,1,2.311-2.1Zm2.058,9.367v16.7h-4.442V14.014Z" transform="translate(-327.687 -4.872)" fill="#fff"/>
        <path id="Path_6" data-name="Path 6" d="M475.273,39.722v3.625l-9.209,10.368v.906h9.39l-1.675,3.48H460.61V54.513l9.173-10.4v-.87h-8.993l1.674-3.517Z" transform="translate(-355.002 -30.579)" fill="#fff"/>
        <path id="Path_7" data-name="Path 7" d="M545.588,38.146c5.273,0,7.837,2.465,7.837,6.634V56.889h-4.406V54.75H548.3a6.259,6.259,0,0,1-5.49,2.5c-3.25,0-5.959-1.667-5.959-5.583,0-3.444,2.239-5.547,7.367-5.547h4.8V44.78c0-2.284-1.3-3.227-3.431-3.227h-.433c-1.878,0-3.431.942-3.431,3.19H537.39c0-4.133,2.709-6.6,7.765-6.6Zm-4.37,13.2c0,1.559,1.083,2.429,3.142,2.429,2.492,0,4.659-1.16,4.659-4.314v-.544h-4.442c-2.384,0-3.359.87-3.359,2.429" transform="translate(-413.76 -29.366)" fill="#fff"/>
        <path id="Path_8" data-name="Path 8" d="M631.074,38.51v2.211h.722a5.83,5.83,0,0,1,5.128-2.574h.433c3.575,0,6.139,2.248,6.139,7.251V56.89h-4.442V46.2c0-2.828-1.409-4.205-3.756-4.205h-.434c-2.384,0-3.792,1.377-3.792,4.205V56.89h-4.442V38.51Z" transform="translate(-482.959 -29.367)" fill="#fff"/>
        <path id="Path_9" data-name="Path 9" d="M721.409,38.146a9.325,9.325,0,0,1,2.745.362H733.2l-1.674,3.154-3.323-.181a6.343,6.343,0,0,1,.795,3.118v.363c0,3.952-2.961,6.526-7.584,6.526h-.433a10.2,10.2,0,0,1-2.709-.4,1.524,1.524,0,0,0-.506,1.16c0,.725.325,1.74,3.25,1.74h.9c5.779,0,8.993,1.812,8.993,5.728v.362c0,3.734-3.286,5.873-9.1,5.873h-.686c-5.742,0-8.956-2.03-8.956-5v-.326c0-2.175,1.409-3.553,3.359-4.242v-.8a2.746,2.746,0,0,1-1.878-2.683,2.9,2.9,0,0,1,1.878-2.683V49.6a5.9,5.9,0,0,1-2.131-4.64V44.6c0-3.77,3-6.453,7.584-6.453Zm-4.948,21.643v.29c0,1.7,1.7,2.574,4.767,2.574h.542c3.07,0,4.8-.87,4.8-2.574v-.29c0-1.7-1.734-2.5-4.8-2.5h-.542c-3.07,0-4.767.8-4.767,2.5m1.264-15.263v.507a2.975,2.975,0,0,0,3.251,3.154h.4a3,3,0,0,0,3.286-3.154v-.507a2.951,2.951,0,0,0-3.286-3.082h-.4a2.922,2.922,0,0,0-3.251,3.082" transform="translate(-548.879 -29.366)" fill="#fff"/>
        <path id="Path_10" data-name="Path 10" d="M813.011,38.146c5.02,0,8.7,2.792,8.7,8.3v2.5c0,5.583-3.684,8.3-8.7,8.3h-.433c-5.056,0-8.74-2.719-8.74-8.3v-2.5c0-5.51,3.684-8.3,8.74-8.3Zm-4.731,8.266v2.574c0,3.009,1.445,4.677,4.3,4.677h.433c2.817,0,4.262-1.668,4.262-4.677V46.412c0-2.973-1.444-4.677-4.262-4.677h-.433c-2.817,0-4.3,1.7-4.3,4.677" transform="translate(-619.535 -29.366)" fill="#fff"/>
        <path id="Path_11" data-name="Path 11" d="M233.932,156.733V151.8h1.052L236.1,155q.043.129.089.284t.086.291q.039.136.061.237h.05q.021-.108.057-.248t.079-.291q.043-.151.079-.273l1.117-3.2h1.045v4.93h-.68v-2.889q0-.223.007-.485t.014-.481c0-.146.007-.25.007-.313h-.057c-.014.062-.038.15-.072.262l-.1.352q-.054.183-.1.327l-1.153,3.227h-.587l-1.153-3.227q-.043-.122-.09-.284t-.093-.334c-.031-.115-.061-.223-.089-.324h-.05q.007.158.011.392t.007.467q0,.233,0,.42v2.889Z" transform="translate(-180.296 -116.865)" fill="#fff"/>
        <path id="Path_12" data-name="Path 12" d="M275.681,156.733V151.8h3.78l-.409.589h-2.691v1.524h2.785v.589h-2.785v1.638H279.5v.589Z" transform="translate(-212.473 -116.865)" fill="#fff"/>
        <path id="Path_13" data-name="Path 13" d="M312.121,156.733V151.8h1.833a3.05,3.05,0,0,1,1.317.259,1.8,1.8,0,0,1,.834.8,3.526,3.526,0,0,1,0,2.8,1.82,1.82,0,0,1-.834.809,3.012,3.012,0,0,1-1.317.262Zm.68-.589h1.138a2.369,2.369,0,0,0,.73-.1,1.438,1.438,0,0,0,.551-.32,1.361,1.361,0,0,0,.347-.557,2.506,2.506,0,0,0,.118-.816V154.2a2.557,2.557,0,0,0-.118-.83,1.38,1.38,0,0,0-.344-.557,1.407,1.407,0,0,0-.548-.32,2.393,2.393,0,0,0-.737-.1H312.8Z" transform="translate(-240.558 -116.865)" fill="#fff"/>
        <path id="Path_14" data-name="Path 14" d="M350.342,156.733V151.8l.68.616v4.314Z" transform="translate(-270.016 -116.865)" fill="#fff"/>
        <path id="Path_15" data-name="Path 15" d="M371.513,156.733l1.94-4.93h.9l1.947,4.93h-.737l-.48-1.222h-2.391l-.473,1.222Zm1.4-1.8h1.94l-.594-1.545c-.014-.043-.036-.1-.064-.18s-.06-.162-.093-.255-.067-.189-.1-.287-.064-.188-.093-.27h-.043l-.114.33q-.065.187-.129.363t-.108.3Z" transform="translate(-286.333 -116.865)" fill="#fff"/>
      </g>
    </g>
  </g>
</svg>
